<mxfile host="65bd71144e">
    <diagram id="xv-YtesteRBVoPzP7Zjw" name="Page-1">
        <mxGraphModel dx="854" dy="997" grid="1" gridSize="10" guides="1" tooltips="1" connect="1" arrows="1" fold="1" page="1" pageScale="1" pageWidth="850" pageHeight="1100" math="0" shadow="0">
            <root>
                <mxCell id="0"/>
                <mxCell id="1" parent="0"/>
                <mxCell id="2" style="edgeStyle=none;html=1;exitX=0.5;exitY=1;exitDx=0;exitDy=0;entryX=0.5;entryY=0;entryDx=0;entryDy=0;" edge="1" parent="1" source="4" target="9">
                    <mxGeometry relative="1" as="geometry">
                        <mxPoint x="320" y="200" as="targetPoint"/>
                        <Array as="points">
                            <mxPoint x="450" y="170"/>
                            <mxPoint x="280" y="170"/>
                        </Array>
                    </mxGeometry>
                </mxCell>
                <mxCell id="3" style="edgeStyle=none;html=1;exitX=0.5;exitY=1;exitDx=0;exitDy=0;entryX=0.5;entryY=0;entryDx=0;entryDy=0;" edge="1" parent="1" source="4" target="12">
                    <mxGeometry relative="1" as="geometry">
                        <mxPoint x="530" y="200" as="targetPoint"/>
                        <Array as="points">
                            <mxPoint x="450" y="170"/>
                            <mxPoint x="600" y="170"/>
                        </Array>
                    </mxGeometry>
                </mxCell>
                <mxCell id="4" value="&lt;i&gt;&lt;font face=&quot;Georgia&quot;&gt;SVM&lt;sub&gt;AB&lt;/sub&gt;&lt;br&gt;{A vs B}&lt;br&gt;&lt;/font&gt;&lt;/i&gt;" style="rounded=1;whiteSpace=wrap;html=1;" vertex="1" parent="1">
                    <mxGeometry x="390" y="80" width="120" height="60" as="geometry"/>
                </mxCell>
                <mxCell id="23" style="edgeStyle=none;html=1;exitX=0.5;exitY=1;exitDx=0;exitDy=0;entryX=0.5;entryY=0;entryDx=0;entryDy=0;" edge="1" parent="1" source="9" target="18">
                    <mxGeometry relative="1" as="geometry">
                        <Array as="points">
                            <mxPoint x="280" y="280"/>
                            <mxPoint x="190" y="280"/>
                        </Array>
                    </mxGeometry>
                </mxCell>
                <mxCell id="24" style="edgeStyle=none;html=1;exitX=0.5;exitY=1;exitDx=0;exitDy=0;entryX=0.5;entryY=0;entryDx=0;entryDy=0;" edge="1" parent="1" source="9" target="10">
                    <mxGeometry relative="1" as="geometry">
                        <Array as="points">
                            <mxPoint x="280" y="280"/>
                            <mxPoint x="365" y="280"/>
                        </Array>
                    </mxGeometry>
                </mxCell>
                <mxCell id="9" value="&lt;font face=&quot;Georgia&quot;&gt;&lt;i&gt;SVM&lt;sub&gt;A&lt;span style=&quot;font-size: 8px&quot;&gt;0&lt;br&gt;&lt;/span&gt;&lt;/sub&gt;&lt;/i&gt;&lt;/font&gt;&lt;font face=&quot;Georgia&quot;&gt;&lt;i&gt;{A&lt;sub&gt;r &lt;/sub&gt;vs A&lt;sub&gt;0&lt;/sub&gt;}&lt;/i&gt;&lt;br&gt;&lt;/font&gt;" style="rounded=1;whiteSpace=wrap;html=1;" vertex="1" parent="1">
                    <mxGeometry x="220" y="200" width="120" height="60" as="geometry"/>
                </mxCell>
                <mxCell id="10" value="&lt;font face=&quot;Georgia&quot;&gt;&lt;i&gt;SVM&lt;sub&gt;A&lt;span style=&quot;font-size: 8px&quot;&gt;n-1&lt;br&gt;&lt;/span&gt;&lt;/sub&gt;&lt;/i&gt;&lt;/font&gt;&lt;font face=&quot;Georgia&quot;&gt;&lt;i&gt;{A&lt;sub&gt;n-1&amp;nbsp;&lt;/sub&gt;vs A&lt;sub&gt;n&lt;/sub&gt;}&lt;/i&gt;&lt;/font&gt;&lt;i&gt;&lt;font face=&quot;Georgia&quot;&gt;&lt;br&gt;&lt;/font&gt;&lt;/i&gt;" style="rounded=1;whiteSpace=wrap;html=1;" vertex="1" parent="1">
                    <mxGeometry x="305" y="300" width="120" height="60" as="geometry"/>
                </mxCell>
                <mxCell id="11" value="&lt;font face=&quot;Georgia&quot;&gt;&lt;i&gt;SVM&lt;sub&gt;B&lt;font style=&quot;font-size: 8px&quot;&gt;m&lt;/font&gt;&lt;span style=&quot;font-size: 8px&quot;&gt;-1&lt;br&gt;&lt;/span&gt;&lt;/sub&gt;&lt;/i&gt;&lt;/font&gt;&lt;font face=&quot;Georgia&quot;&gt;&lt;i&gt;{B&lt;sub&gt;m-1&amp;nbsp;&lt;/sub&gt;vs B&lt;sub&gt;m&lt;/sub&gt;}&lt;/i&gt;&lt;/font&gt;&lt;i&gt;&lt;font face=&quot;Georgia&quot;&gt;&lt;br&gt;&lt;/font&gt;&lt;/i&gt;" style="rounded=1;whiteSpace=wrap;html=1;" vertex="1" parent="1">
                    <mxGeometry x="470" y="300" width="120" height="60" as="geometry"/>
                </mxCell>
                <mxCell id="25" style="edgeStyle=none;html=1;exitX=0.5;exitY=1;exitDx=0;exitDy=0;entryX=0.5;entryY=0;entryDx=0;entryDy=0;" edge="1" parent="1" source="12" target="11">
                    <mxGeometry relative="1" as="geometry">
                        <Array as="points">
                            <mxPoint x="600" y="280"/>
                            <mxPoint x="530" y="280"/>
                        </Array>
                    </mxGeometry>
                </mxCell>
                <mxCell id="26" style="edgeStyle=none;html=1;exitX=0.5;exitY=1;exitDx=0;exitDy=0;entryX=0.5;entryY=0;entryDx=0;entryDy=0;" edge="1" parent="1" source="12" target="19">
                    <mxGeometry relative="1" as="geometry">
                        <Array as="points">
                            <mxPoint x="600" y="280"/>
                            <mxPoint x="690" y="280"/>
                        </Array>
                    </mxGeometry>
                </mxCell>
                <mxCell id="12" value="&lt;font face=&quot;Georgia&quot;&gt;&lt;i&gt;SVM&lt;sub&gt;B&lt;span style=&quot;font-size: 8px&quot;&gt;0&lt;br&gt;&lt;/span&gt;&lt;/sub&gt;&lt;/i&gt;&lt;/font&gt;&lt;font face=&quot;Georgia&quot;&gt;&lt;i&gt;{B&lt;sub&gt;r&amp;nbsp;&lt;/sub&gt;vs B&lt;sub&gt;0&lt;/sub&gt;}&lt;/i&gt;&lt;/font&gt;&lt;i&gt;&lt;font face=&quot;Georgia&quot;&gt;&lt;br&gt;&lt;/font&gt;&lt;/i&gt;" style="rounded=1;whiteSpace=wrap;html=1;" vertex="1" parent="1">
                    <mxGeometry x="540" y="200" width="120" height="60" as="geometry"/>
                </mxCell>
                <mxCell id="18" value="&lt;font face=&quot;Georgia&quot;&gt;&lt;i&gt;SVM&lt;sub&gt;A&lt;span style=&quot;font-size: 8px&quot;&gt;n-1&lt;br&gt;&lt;/span&gt;&lt;/sub&gt;&lt;/i&gt;&lt;/font&gt;&lt;font face=&quot;Georgia&quot;&gt;&lt;i&gt;{A&lt;sub&gt;n-1&amp;nbsp;&lt;/sub&gt;vs A&lt;sub&gt;n&lt;/sub&gt;}&lt;/i&gt;&lt;/font&gt;&lt;i&gt;&lt;font face=&quot;Georgia&quot;&gt;&lt;br&gt;&lt;/font&gt;&lt;/i&gt;" style="rounded=1;whiteSpace=wrap;html=1;" vertex="1" parent="1">
                    <mxGeometry x="130" y="300" width="120" height="60" as="geometry"/>
                </mxCell>
                <mxCell id="19" value="&lt;font face=&quot;Georgia&quot;&gt;&lt;i&gt;SVM&lt;sub&gt;B&lt;font style=&quot;font-size: 8px&quot;&gt;m&lt;/font&gt;&lt;span style=&quot;font-size: 8px&quot;&gt;-1&lt;br&gt;&lt;/span&gt;&lt;/sub&gt;&lt;/i&gt;&lt;/font&gt;&lt;font face=&quot;Georgia&quot;&gt;&lt;i&gt;{B&lt;sub&gt;m-1&amp;nbsp;&lt;/sub&gt;vs B&lt;sub&gt;m&lt;/sub&gt;}&lt;/i&gt;&lt;/font&gt;&lt;i&gt;&lt;font face=&quot;Georgia&quot;&gt;&lt;br&gt;&lt;/font&gt;&lt;/i&gt;" style="rounded=1;whiteSpace=wrap;html=1;" vertex="1" parent="1">
                    <mxGeometry x="630" y="300" width="120" height="60" as="geometry"/>
                </mxCell>
                <mxCell id="31" value="&lt;font face=&quot;Georgia&quot;&gt;&lt;i&gt;SVM&lt;sub&gt;A&lt;span style=&quot;font-size: 8px&quot;&gt;n-1&lt;br&gt;&lt;/span&gt;&lt;/sub&gt;&lt;/i&gt;&lt;/font&gt;&lt;font face=&quot;Georgia&quot;&gt;&lt;i&gt;{A&lt;sub&gt;n-1&amp;nbsp;&lt;/sub&gt;vs A&lt;sub&gt;n&lt;/sub&gt;}&lt;/i&gt;&lt;/font&gt;&lt;i&gt;&lt;font face=&quot;Georgia&quot;&gt;&lt;br&gt;&lt;/font&gt;&lt;/i&gt;" style="rounded=1;whiteSpace=wrap;html=1;" vertex="1" parent="1">
                    <mxGeometry x="60" y="480" width="120" height="60" as="geometry"/>
                </mxCell>
                <mxCell id="32" value="&lt;font face=&quot;Georgia&quot;&gt;&lt;i&gt;SVM&lt;sub&gt;A&lt;span style=&quot;font-size: 8px&quot;&gt;n-1&lt;br&gt;&lt;/span&gt;&lt;/sub&gt;&lt;/i&gt;&lt;/font&gt;&lt;font face=&quot;Georgia&quot;&gt;&lt;i&gt;{A&lt;sub&gt;n-1&amp;nbsp;&lt;/sub&gt;vs A&lt;sub&gt;n&lt;/sub&gt;}&lt;/i&gt;&lt;/font&gt;&lt;i&gt;&lt;font face=&quot;Georgia&quot;&gt;&lt;br&gt;&lt;/font&gt;&lt;/i&gt;" style="rounded=1;whiteSpace=wrap;html=1;" vertex="1" parent="1">
                    <mxGeometry x="710" y="480" width="120" height="60" as="geometry"/>
                </mxCell>
                <mxCell id="33" value="&lt;font face=&quot;Georgia&quot;&gt;&lt;i&gt;SVM&lt;sub&gt;A&lt;span style=&quot;font-size: 8px&quot;&gt;n-1&lt;br&gt;&lt;/span&gt;&lt;/sub&gt;&lt;/i&gt;&lt;/font&gt;&lt;font face=&quot;Georgia&quot;&gt;&lt;i&gt;{A&lt;sub&gt;n-1&amp;nbsp;&lt;/sub&gt;vs A&lt;sub&gt;n&lt;/sub&gt;}&lt;/i&gt;&lt;/font&gt;&lt;i&gt;&lt;font face=&quot;Georgia&quot;&gt;&lt;br&gt;&lt;/font&gt;&lt;/i&gt;" style="rounded=1;whiteSpace=wrap;html=1;" vertex="1" parent="1">
                    <mxGeometry x="290" y="480" width="120" height="60" as="geometry"/>
                </mxCell>
                <mxCell id="34" value="&lt;font face=&quot;Georgia&quot;&gt;&lt;i&gt;SVM&lt;sub&gt;A&lt;span style=&quot;font-size: 8px&quot;&gt;n-1&lt;br&gt;&lt;/span&gt;&lt;/sub&gt;&lt;/i&gt;&lt;/font&gt;&lt;font face=&quot;Georgia&quot;&gt;&lt;i&gt;{A&lt;sub&gt;n-1&amp;nbsp;&lt;/sub&gt;vs A&lt;sub&gt;n&lt;/sub&gt;}&lt;/i&gt;&lt;/font&gt;&lt;i&gt;&lt;font face=&quot;Georgia&quot;&gt;&lt;br&gt;&lt;/font&gt;&lt;/i&gt;" style="rounded=1;whiteSpace=wrap;html=1;" vertex="1" parent="1">
                    <mxGeometry x="510" y="480" width="120" height="60" as="geometry"/>
                </mxCell>
                <mxCell id="36" value="&lt;font style=&quot;font-size: 30px&quot; face=&quot;Georgia&quot;&gt;. . .&lt;/font&gt;" style="text;html=1;strokeColor=none;fillColor=none;align=center;verticalAlign=middle;whiteSpace=wrap;rounded=0;strokeWidth=7;" vertex="1" parent="1">
                    <mxGeometry x="200" y="490" width="60" height="30" as="geometry"/>
                </mxCell>
                <mxCell id="40" value="&lt;font style=&quot;font-size: 30px&quot; face=&quot;Georgia&quot;&gt;. . .&lt;/font&gt;" style="text;html=1;strokeColor=none;fillColor=none;align=center;verticalAlign=middle;whiteSpace=wrap;rounded=0;strokeWidth=7;" vertex="1" parent="1">
                    <mxGeometry x="430" y="495" width="60" height="30" as="geometry"/>
                </mxCell>
                <mxCell id="41" value="&lt;font style=&quot;font-size: 30px&quot; face=&quot;Georgia&quot;&gt;. . .&lt;/font&gt;" style="text;html=1;strokeColor=none;fillColor=none;align=center;verticalAlign=middle;whiteSpace=wrap;rounded=0;strokeWidth=7;" vertex="1" parent="1">
                    <mxGeometry x="640" y="495" width="60" height="30" as="geometry"/>
                </mxCell>
                <mxCell id="42" value="&lt;font style=&quot;font-size: 30px&quot; face=&quot;Georgia&quot;&gt;. . .&lt;/font&gt;" style="text;html=1;strokeColor=none;fillColor=none;align=center;verticalAlign=middle;whiteSpace=wrap;rounded=0;strokeWidth=7;rotation=-60;" vertex="1" parent="1">
                    <mxGeometry x="110" y="400" width="60" height="30" as="geometry"/>
                </mxCell>
                <mxCell id="43" value="&lt;font style=&quot;font-size: 30px&quot; face=&quot;Georgia&quot;&gt;. . .&lt;/font&gt;" style="text;html=1;strokeColor=none;fillColor=none;align=center;verticalAlign=middle;whiteSpace=wrap;rounded=0;strokeWidth=7;rotation=60;" vertex="1" parent="1">
                    <mxGeometry x="190" y="400" width="60" height="30" as="geometry"/>
                </mxCell>
                <mxCell id="44" value="&lt;font style=&quot;font-size: 30px&quot; face=&quot;Georgia&quot;&gt;. . .&lt;/font&gt;" style="text;html=1;strokeColor=none;fillColor=none;align=center;verticalAlign=middle;whiteSpace=wrap;rounded=0;strokeWidth=7;rotation=-60;" vertex="1" parent="1">
                    <mxGeometry x="285" y="400" width="60" height="30" as="geometry"/>
                </mxCell>
                <mxCell id="45" value="&lt;font style=&quot;font-size: 30px&quot; face=&quot;Georgia&quot;&gt;. . .&lt;/font&gt;" style="text;html=1;strokeColor=none;fillColor=none;align=center;verticalAlign=middle;whiteSpace=wrap;rounded=0;strokeWidth=7;rotation=60;" vertex="1" parent="1">
                    <mxGeometry x="365" y="400" width="60" height="30" as="geometry"/>
                </mxCell>
                <mxCell id="46" value="&lt;font style=&quot;font-size: 30px&quot; face=&quot;Georgia&quot;&gt;. . .&lt;/font&gt;" style="text;html=1;strokeColor=none;fillColor=none;align=center;verticalAlign=middle;whiteSpace=wrap;rounded=0;strokeWidth=7;rotation=-60;" vertex="1" parent="1">
                    <mxGeometry x="450" y="400" width="60" height="30" as="geometry"/>
                </mxCell>
                <mxCell id="47" value="&lt;font style=&quot;font-size: 30px&quot; face=&quot;Georgia&quot;&gt;. . .&lt;/font&gt;" style="text;html=1;strokeColor=none;fillColor=none;align=center;verticalAlign=middle;whiteSpace=wrap;rounded=0;strokeWidth=7;rotation=60;" vertex="1" parent="1">
                    <mxGeometry x="530" y="400" width="60" height="30" as="geometry"/>
                </mxCell>
                <mxCell id="48" value="&lt;font style=&quot;font-size: 30px&quot; face=&quot;Georgia&quot;&gt;. . .&lt;/font&gt;" style="text;html=1;strokeColor=none;fillColor=none;align=center;verticalAlign=middle;whiteSpace=wrap;rounded=0;strokeWidth=7;rotation=-60;" vertex="1" parent="1">
                    <mxGeometry x="620" y="400" width="60" height="30" as="geometry"/>
                </mxCell>
                <mxCell id="49" value="&lt;font style=&quot;font-size: 30px&quot; face=&quot;Georgia&quot;&gt;. . .&lt;/font&gt;" style="text;html=1;strokeColor=none;fillColor=none;align=center;verticalAlign=middle;whiteSpace=wrap;rounded=0;strokeWidth=7;rotation=60;" vertex="1" parent="1">
                    <mxGeometry x="700" y="400" width="60" height="30" as="geometry"/>
                </mxCell>
            </root>
        </mxGraphModel>
    </diagram>
</mxfile>